<svg xmlns="http://www.w3.org/2000/svg" width="32" height="32" fill="none" viewBox="0 0 32 32"><path fill="#7866D5" d="M16.011 32.023c8.843 0 16.012-7.169 16.012-16.012S24.854 0 16.01 0 0 7.169 0 16.011c0 8.843 7.169 16.012 16.011 16.012"/><path fill="#fff" d="M22.493 8.22c.542.068 1.106.113 1.648.203 1.062.204 1.423.746 1.242 1.83a.91.91 0 0 1-.768.79 3 3 0 0 1-.767.045c-3.523 0-7.024.023-10.547.023-.519 0-1.061.045-1.58.135-1.74.271-2.417.994-2.552 2.755-.068.813-.068.813.768.813h14.407c.226 0 .43.068.633.181.632.407.474 1.061.451 1.649-.022.474-.316.745-.813.835-.203.045-.406.045-.632.045H9.62c-.52 0-.52 0-.474.52.023.474.068.948.18 1.422.227.858.746 1.4 1.627 1.649.948.27 1.942.316 2.913.339H24.14c.43 0 .836.045 1.107.451.429.678.203 1.559-.475 1.988a.7.7 0 0 1-.293.135c-.745.249-1.513.294-2.303.316-3.23.068-6.437.068-9.643 0a16.3 16.3 0 0 1-2.959-.338c-2.28-.475-3.432-1.649-3.816-3.953-.09-.519-.136-1.06-.204-1.603v-4.2c.046-.407.09-.836.136-1.242.293-2.597 1.468-3.885 4.02-4.472.903-.203 1.851-.248 2.755-.338z"/><path fill="#fff" d="M17.344 24.796c-1.626 0-3.23-.023-4.833-.045a15 15 0 0 1-3.026-.361c-2.462-.52-3.726-1.83-4.133-4.269a10 10 0 0 1-.135-1.129 27 27 0 0 1-.068-.497v-4.29l.045-.407c.023-.293.068-.565.09-.835.317-2.778 1.626-4.2 4.359-4.81.723-.159 1.423-.226 2.123-.294l.677-.068H22.56c.158.023.34.045.497.045.384.045.768.068 1.175.158 1.287.249 1.784.971 1.558 2.281a1.32 1.32 0 0 1-1.13 1.13 5 5 0 0 1-.835.067c-3.5.023-7.023.045-10.524.045a8.6 8.6 0 0 0-1.513.136c-1.558.248-2.077.813-2.213 2.393 0 .136-.022.272-.022.384h14.791c.294 0 .588.09.836.226.768.497.7 1.242.655 1.784 0 .068-.023.158-.023.226-.045.632-.429 1.061-1.129 1.197-.248.045-.474.045-.7.045H9.553V18c.022.474.067.925.18 1.377.18.7.61 1.13 1.333 1.332.97.271 1.964.317 2.823.317 2.664.022 5.374.022 8.017.022h2.258c.338 0 1.039 0 1.445.655.271.43.339.926.226 1.4a1.87 1.87 0 0 1-1.22 1.333c-.835.27-1.693.316-2.416.338-1.603 0-3.23.023-4.855.023M5.962 18.428c.022.158.045.316.045.474l.136 1.084c.36 2.123 1.377 3.161 3.5 3.613.948.203 1.92.316 2.89.339 3.185.068 6.437.068 9.643 0 .655-.023 1.446-.068 2.168-.294.068-.022.136-.067.204-.09.226-.158.406-.384.474-.655a1 1 0 0 0-.136-.79c-.135-.204-.316-.271-.745-.271h-2.258c-2.62 0-5.352 0-8.017-.023-.903 0-1.965-.045-3.026-.361-1.016-.271-1.649-.926-1.897-1.942a7 7 0 0 1-.18-1.514v-.022c-.023-.316-.046-.542.135-.745.18-.204.429-.204.745-.204h14.363c.18 0 .384 0 .564-.045.362-.067.452-.226.474-.451 0-.09.023-.159.023-.249.045-.564.045-.835-.27-1.039a.85.85 0 0 0-.407-.113H9.937c-.497 0-.79 0-1.017-.225-.226-.226-.18-.542-.158-1.017.158-1.942.971-2.822 2.89-3.116a13 13 0 0 1 1.65-.158c3.522 0 7.023-.023 10.546-.023.248 0 .474 0 .7-.045a.48.48 0 0 0 .429-.429c.158-.903-.068-1.197-.926-1.378a9 9 0 0 0-1.084-.135 4 4 0 0 0-.497-.045h-9.982l-.677.068c-.7.067-1.355.112-2.033.27-2.37.588-3.41 1.74-3.68 4.178-.023.271-.068.542-.09.836l-.046.384z"/></svg>